<svg xmlns="http://www.w3.org/2000/svg" width="38.53px" height="38.53px" fill="none"
    viewBox="0 0 32 32">
    <circle cx="16" cy="16" r="14" fill="url(#a)" />
    <path fill="#fff"
        d="M23 10.2c.1-.8-.7-1.4-1.4-1.1L7.4 15.3c-.5.3-.5 1 0 1.2l3 1c.5.1 1.1 0 1.6-.3l6.7-4.6c.2-.1.4.2.2.3l-4.8 5a1 1 0 0 0 .2 1.6l5.4 3.4c.6.3 1.3 0 1.4-.8L23 10.2Z" />
    <defs>
        <linearGradient id="a" x1="16" x2="16" y1="2" y2="30" gradientUnits="userSpaceOnUse">
            <stop stop-color="#37BBFE" />
            <stop offset="1" stop-color="#007DBB" />
        </linearGradient>
    </defs>
</svg>