<svg xmlns="http://www.w3.org/2000/svg" width="38.53" height="38.53" viewBox="0 0 48 48">
  <path fill="#fff" d="m4.9 43.3 2.7-9.8a19 19 0 0 1 29.8-23A19 19 0 0 1 24 43a19 19 0 0 1-9-2.2L4.8 43.3z"/>
  <path fill="#fff" d="M4.9 43.8a.5.5 0 0 1-.5-.6L7 33.5a19.5 19.5 0 1 1 7.9 7.7l-10 2.6z"/>
  <path fill="#cfd8dc" d="M24 5a18.9 18.9 0 0 1 19 19 19 19 0 0 1-28 16.7L4.8 43.3l2.7-9.8A19 19 0 0 1 24 5m0-1A20 20 0 0 0 6.5 33.6L3.9 43a1 1 0 0 0 1.2 1.3l9.7-2.6A20 20 0 1 0 24 4z"/>
  <path fill="#40c351" d="M35.2 12.8a15.8 15.8 0 0 0-24.5 19.5l.3.7-1.6 5.8 6-1.6.6.4a15.8 15.8 0 0 0 19.2-24.7z"/>
  <path fill="#fff" fill-rule="evenodd" d="M19.3 16c-.4-.7-.8-.8-1.1-.8h-1c-.2 0-.7.1-1.2.6-.4.5-1.6 1.6-1.6 4 0 2.3 1.7 4.6 1.9 4.9.2.3 3.3 5.2 8.1 7.1 4 1.6 4.8 1.3 5.7 1.2.9 0 2.8-1.1 3.2-2.2.4-1.1.4-2 .3-2.3-.1-.2-.5-.3-1-.5l-3.2-1.6c-.4-.1-.7-.2-1 .2l-1.5 2c-.3.2-.6.3-1 0-.5-.2-2-.7-3.9-2.3a14.3 14.3 0 0 1-2.6-3.3c-.3-.5 0-.7.2-1l.7-.8.5-.8c.1-.3 0-.6 0-.8L19.2 16z" clip-rule="evenodd"/>
</svg>